# xmcd
#
# Track frame offsets: 
#        150
#        14354
#        28175
#        38109
#        53817
#        71571
#        82924
#        94948
#        109303
#        118590
#        135353
#        151558
#        169007
#        191464
#
# Disc length: 2759 seconds
#
# Revision: 0
# Processed by: cddbd v1.5.2PL0 Copyright (c) Steve Scherf et al.
# Submitted via: ExactAudioCopyFreeDBPlugin 1.0
#
DISCID=aa0ac50e
DTITLE=Nate Grower - Nate Grower
DYEAR=2009
DGENRE=Bluegrass
TTITLE0=New Fall Reel
TTITLE1=Big Sciota
TTITLE2=Fire on the Mountain
TTITLE3=Cherry River Line
TTITLE4=Kansas City Kitty
TTITLE5=Grey Eagle
TTITLE6=Why Did You Wander
TTITLE7=Uptown Blues
TTITLE8=Leon Kenningtron Waltz
TTITLE9=Whistling Rufus
TTITLE10=Cattle in the Cane
TTITLE11=Burning Well
TTITLE12=I've Just Seen the Rock of Ages
TTITLE13=Cedarwood
EXTD=
EXTT0=
EXTT1=
EXTT2=
EXTT3=
EXTT4=
EXTT5=
EXTT6=
EXTT7=
EXTT8=
EXTT9=
EXTT10=
EXTT11=
EXTT12=
EXTT13=
PLAYORDER=
